<svg width="176" height="81" viewBox="0 0 176 81" fill="none" xmlns="http://www.w3.org/2000/svg">
<rect width="176" height="81" rx="27" fill="#1B75BB"/>
<path d="M75.0881 65.2727V74H73.2983L69.8253 68.9631H69.7699V74H67.6605V65.2727H69.4759L72.9105 70.3011H72.983V65.2727H75.0881ZM79.4741 74.1236C78.7894 74.1236 78.1985 73.9886 77.7013 73.7188C77.207 73.446 76.8263 73.0582 76.5593 72.5554C76.2951 72.0497 76.163 71.4489 76.163 70.7528C76.163 70.0767 76.2965 69.4858 76.5636 68.9801C76.8306 68.4716 77.207 68.0767 77.6928 67.7955C78.1786 67.5114 78.7511 67.3693 79.4102 67.3693C79.8761 67.3693 80.3022 67.4418 80.6886 67.5866C81.0749 67.7315 81.4087 67.946 81.69 68.2301C81.9712 68.5142 82.19 68.8651 82.3462 69.2827C82.5025 69.6974 82.5806 70.1733 82.5806 70.7102V71.2301H76.8917V70.0199H80.6417C80.6388 69.7983 80.5863 69.6009 80.484 69.4276C80.3817 69.2543 80.2411 69.1193 80.0621 69.0227C79.886 68.9233 79.6829 68.8736 79.4528 68.8736C79.2198 68.8736 79.011 68.9261 78.8263 69.0312C78.6417 69.1335 78.4954 69.2741 78.3874 69.4531C78.2795 69.6293 78.2227 69.8295 78.217 70.054V71.2855C78.217 71.5526 78.2695 71.7869 78.3746 71.9886C78.4798 72.1875 78.6289 72.3423 78.8221 72.4531C79.0153 72.5639 79.2454 72.6193 79.5124 72.6193C79.6971 72.6193 79.8647 72.5937 80.0153 72.5426C80.1658 72.4915 80.2951 72.4162 80.4031 72.3168C80.511 72.2173 80.592 72.0952 80.646 71.9503L82.5593 72.0057C82.4798 72.4347 82.305 72.8082 82.0352 73.1264C81.7681 73.4418 81.4173 73.6875 80.9826 73.8636C80.5479 74.0369 80.0451 74.1236 79.4741 74.1236ZM85.3239 67.4545L86.402 69.6108L87.5185 67.4545H89.6193L87.7912 70.7273L89.6875 74H87.6037L86.402 71.8267L85.2301 74H83.1165L85.017 70.7273L83.2102 67.4545H85.3239ZM94.2653 67.4545V68.9886H90.136V67.4545H94.2653ZM91.0011 65.8864H93.0849V71.9418C93.0849 72.0696 93.1048 72.1733 93.1445 72.2528C93.1871 72.3295 93.2482 72.3849 93.3278 72.419C93.4073 72.4503 93.5025 72.4659 93.6133 72.4659C93.6928 72.4659 93.7766 72.4588 93.8647 72.4446C93.9556 72.4276 94.0238 72.4134 94.0692 72.402L94.3846 73.9062C94.2852 73.9347 94.1445 73.9702 93.9627 74.0128C93.7837 74.0554 93.5692 74.0824 93.3192 74.0938C92.8306 74.1165 92.4116 74.0597 92.0621 73.9233C91.7156 73.7841 91.4499 73.5682 91.2653 73.2756C91.0835 72.983 90.9954 72.6151 91.0011 72.1719V65.8864ZM101.601 67.4545V68.9886H97.4719V67.4545H101.601ZM98.337 65.8864H100.421V71.9418C100.421 72.0696 100.441 72.1733 100.48 72.2528C100.523 72.3295 100.584 72.3849 100.664 72.419C100.743 72.4503 100.838 72.4659 100.949 72.4659C101.029 72.4659 101.113 72.4588 101.201 72.4446C101.292 72.4276 101.36 72.4134 101.405 72.402L101.721 73.9062C101.621 73.9347 101.48 73.9702 101.299 74.0128C101.12 74.0554 100.905 74.0824 100.655 74.0938C100.167 74.1165 99.7475 74.0597 99.3981 73.9233C99.0515 73.7841 98.7859 73.5682 98.6012 73.2756C98.4194 72.983 98.3313 72.6151 98.337 72.1719V65.8864ZM105.65 74.1236C104.962 74.1236 104.371 73.983 103.877 73.7017C103.385 73.4176 103.006 73.0227 102.739 72.517C102.475 72.0085 102.343 71.419 102.343 70.7486C102.343 70.0753 102.475 69.4858 102.739 68.9801C103.006 68.4716 103.385 68.0767 103.877 67.7955C104.371 67.5114 104.962 67.3693 105.65 67.3693C106.337 67.3693 106.926 67.5114 107.418 67.7955C107.912 68.0767 108.292 68.4716 108.556 68.9801C108.823 69.4858 108.956 70.0753 108.956 70.7486C108.956 71.419 108.823 72.0085 108.556 72.517C108.292 73.0227 107.912 73.4176 107.418 73.7017C106.926 73.983 106.337 74.1236 105.65 74.1236ZM105.662 72.5511C105.912 72.5511 106.124 72.4744 106.297 72.321C106.471 72.1676 106.603 71.9545 106.694 71.6818C106.787 71.4091 106.834 71.0937 106.834 70.7358C106.834 70.3722 106.787 70.054 106.694 69.7812C106.603 69.5085 106.471 69.2955 106.297 69.142C106.124 68.9886 105.912 68.9119 105.662 68.9119C105.404 68.9119 105.185 68.9886 105.006 69.142C104.83 69.2955 104.695 69.5085 104.601 69.7812C104.51 70.054 104.465 70.3722 104.465 70.7358C104.465 71.0937 104.51 71.4091 104.601 71.6818C104.695 71.9545 104.83 72.1676 105.006 72.321C105.185 72.4744 105.404 72.5511 105.662 72.5511Z" fill="white"/>
<path d="M105.936 51.5508C105.936 52.2581 105.798 52.9585 105.527 53.6121C105.257 54.2656 104.86 54.8595 104.36 55.3598C103.86 55.8601 103.267 56.2569 102.613 56.5276C101.96 56.7983 101.26 56.9376 100.552 56.9375H61.3813C60.6742 56.9373 59.9741 56.7978 59.3209 56.5269C58.6678 56.2561 58.0744 55.8592 57.5747 55.359C57.0749 54.8587 56.6787 54.265 56.4085 53.6115C56.1383 52.9581 55.9995 52.2579 56 51.5508V12.3836C55.9998 10.9561 56.5666 9.58702 57.5758 8.57742C58.5849 7.56782 59.9538 7.00041 61.3813 7L100.552 7C101.259 6.9999 101.959 7.13908 102.613 7.40959C103.266 7.68011 103.859 8.07666 104.359 8.57659C104.859 9.07652 105.256 9.67005 105.526 10.3233C105.797 10.9765 105.936 11.6766 105.936 12.3836V51.5508Z" fill="#1B75BB"/>
<path d="M64.4751 36.8554C67.4559 36.1657 70.5028 35.9081 73.6728 35.8377C73.8883 30.1359 75.6095 26.047 78.8867 23.6214C79.6648 23.0242 80.5837 22.5605 81.6435 22.2304C82.6949 21.9024 83.7242 21.6942 84.7104 21.6111C85.7019 21.5281 87.0656 21.485 88.8109 21.485H96.7522V21.5218H107.235V20.6522C107.233 19.1852 107.086 17.9936 106.793 17.0775C106.501 16.1592 105.872 15.4471 104.906 14.941C103.944 14.4374 102.503 14.183 100.6 14.183H86.9321C84.5632 14.183 82.4194 14.3196 80.5343 14.5856C78.7121 14.835 76.9266 15.3027 75.2163 15.9788C73.5789 16.6307 72.045 17.5172 70.6626 18.6104C68.9547 19.9706 67.4866 21.6071 66.3193 23.4521C65.1908 25.2528 64.356 27.2792 63.8148 29.5314C63.3354 31.5238 63.0999 33.7359 63.0452 36.1037C63.5552 36.2848 64.0368 36.538 64.4751 36.8554Z" fill="white"/>
<path d="M99.0285 29.0971C99.6604 30.0423 100.841 30.7215 102.236 30.833L117.148 17.8713L102.249 5C100.841 5.11145 99.6604 5.78855 99.0295 6.73797L99.0285 29.0971Z" fill="white"/>
<path d="M68.3884 40.9717C71.3644 40.9717 73.7769 38.5592 73.7769 35.5832C73.7769 32.6073 71.3644 30.1948 68.3884 30.1948C65.4125 30.1948 63 32.6073 63 35.5832C63 38.5592 65.4125 40.9717 68.3884 40.9717Z" fill="white"/>
<path d="M116.525 31.4176C113.546 32.1073 110.501 32.3649 107.331 32.4353C107.116 38.136 105.395 42.226 102.116 44.6516C101.34 45.2488 100.421 45.7125 99.3586 46.0426C98.3072 46.3706 97.2779 46.5799 96.2917 46.6619C95.2991 46.7439 93.9376 46.788 92.1891 46.788H84.2489V46.7502H73.7643V47.6197C73.765 49.0868 73.9125 50.2784 74.2069 51.1945C74.4992 52.1113 75.1276 52.8235 76.0921 53.3309C77.0552 53.8346 78.4956 54.0879 80.3986 54.0879H94.0669C96.4367 54.0879 98.5795 53.9523 100.466 53.6853C102.287 53.4339 104.073 52.9663 105.784 52.2921C107.42 51.64 108.954 50.7535 110.335 49.6605C112.044 48.3004 113.512 46.6639 114.68 44.8188C115.807 43.0174 116.642 40.991 117.186 38.7396C117.662 36.7471 117.901 34.535 117.954 32.1672C117.443 31.9868 116.962 31.7344 116.523 31.4176" fill="white"/>
<path d="M81.9747 39.1685C81.3396 38.2244 80.16 37.5441 78.7647 37.4337L63.8537 50.3944L78.7532 63.2667C80.161 63.1553 81.3407 62.4782 81.9747 61.5287V39.1685ZM112.615 27.2982C113.68 27.2988 114.722 27.6154 115.608 28.2079C116.493 28.8004 117.184 29.6423 117.591 30.627C117.998 31.6117 118.104 32.6951 117.896 33.7402C117.688 34.7853 117.174 35.7451 116.42 36.4983C115.666 37.2515 114.706 37.7643 113.661 37.9719C112.616 38.1794 111.532 38.0724 110.548 37.6643C109.564 37.2562 108.722 36.5654 108.13 35.6792C107.539 34.793 107.223 33.7512 107.223 32.6856C107.223 31.9778 107.363 31.277 107.634 30.6233C107.905 29.9695 108.302 29.3755 108.803 28.8752C109.304 28.375 109.898 27.9782 110.552 27.7076C111.206 27.437 111.907 27.2979 112.615 27.2982Z" fill="white"/>
</svg>
