<svg width="176" height="81" viewBox="0 0 176 81" fill="none" xmlns="http://www.w3.org/2000/svg">
<rect width="176" height="81" rx="27" fill="#680BAF"/>
<path d="M75.0881 65.2727V74H73.2983L69.8253 68.9631H69.7699V74H67.6605V65.2727H69.4759L72.9105 70.3011H72.983V65.2727H75.0881ZM79.4741 74.1236C78.7894 74.1236 78.1985 73.9886 77.7013 73.7188C77.207 73.446 76.8263 73.0582 76.5593 72.5554C76.2951 72.0497 76.163 71.4489 76.163 70.7528C76.163 70.0767 76.2965 69.4858 76.5636 68.9801C76.8306 68.4716 77.207 68.0767 77.6928 67.7955C78.1786 67.5114 78.7511 67.3693 79.4102 67.3693C79.8761 67.3693 80.3022 67.4418 80.6886 67.5866C81.0749 67.7315 81.4087 67.946 81.69 68.2301C81.9712 68.5142 82.19 68.8651 82.3462 69.2827C82.5025 69.6974 82.5806 70.1733 82.5806 70.7102V71.2301H76.8917V70.0199H80.6417C80.6388 69.7983 80.5863 69.6009 80.484 69.4276C80.3817 69.2543 80.2411 69.1193 80.0621 69.0227C79.886 68.9233 79.6829 68.8736 79.4528 68.8736C79.2198 68.8736 79.011 68.9261 78.8263 69.0312C78.6417 69.1335 78.4954 69.2741 78.3874 69.4531C78.2795 69.6293 78.2227 69.8295 78.217 70.054V71.2855C78.217 71.5526 78.2695 71.7869 78.3746 71.9886C78.4798 72.1875 78.6289 72.3423 78.8221 72.4531C79.0153 72.5639 79.2454 72.6193 79.5124 72.6193C79.6971 72.6193 79.8647 72.5937 80.0153 72.5426C80.1658 72.4915 80.2951 72.4162 80.4031 72.3168C80.511 72.2173 80.592 72.0952 80.646 71.9503L82.5593 72.0057C82.4798 72.4347 82.305 72.8082 82.0352 73.1264C81.7681 73.4418 81.4173 73.6875 80.9826 73.8636C80.5479 74.0369 80.0451 74.1236 79.4741 74.1236ZM85.3239 67.4545L86.402 69.6108L87.5185 67.4545H89.6193L87.7912 70.7273L89.6875 74H87.6037L86.402 71.8267L85.2301 74H83.1165L85.017 70.7273L83.2102 67.4545H85.3239ZM94.2653 67.4545V68.9886H90.136V67.4545H94.2653ZM91.0011 65.8864H93.0849V71.9418C93.0849 72.0696 93.1048 72.1733 93.1445 72.2528C93.1871 72.3295 93.2482 72.3849 93.3278 72.419C93.4073 72.4503 93.5025 72.4659 93.6133 72.4659C93.6928 72.4659 93.7766 72.4588 93.8647 72.4446C93.9556 72.4276 94.0238 72.4134 94.0692 72.402L94.3846 73.9062C94.2852 73.9347 94.1445 73.9702 93.9627 74.0128C93.7837 74.0554 93.5692 74.0824 93.3192 74.0938C92.8306 74.1165 92.4116 74.0597 92.0621 73.9233C91.7156 73.7841 91.4499 73.5682 91.2653 73.2756C91.0835 72.983 90.9954 72.6151 91.0011 72.1719V65.8864ZM101.601 67.4545V68.9886H97.4719V67.4545H101.601ZM98.337 65.8864H100.421V71.9418C100.421 72.0696 100.441 72.1733 100.48 72.2528C100.523 72.3295 100.584 72.3849 100.664 72.419C100.743 72.4503 100.838 72.4659 100.949 72.4659C101.029 72.4659 101.113 72.4588 101.201 72.4446C101.292 72.4276 101.36 72.4134 101.405 72.402L101.721 73.9062C101.621 73.9347 101.48 73.9702 101.299 74.0128C101.12 74.0554 100.905 74.0824 100.655 74.0938C100.167 74.1165 99.7475 74.0597 99.3981 73.9233C99.0515 73.7841 98.7859 73.5682 98.6012 73.2756C98.4194 72.983 98.3313 72.6151 98.337 72.1719V65.8864ZM105.65 74.1236C104.962 74.1236 104.371 73.983 103.877 73.7017C103.385 73.4176 103.006 73.0227 102.739 72.517C102.475 72.0085 102.343 71.419 102.343 70.7486C102.343 70.0753 102.475 69.4858 102.739 68.9801C103.006 68.4716 103.385 68.0767 103.877 67.7955C104.371 67.5114 104.962 67.3693 105.65 67.3693C106.337 67.3693 106.926 67.5114 107.418 67.7955C107.912 68.0767 108.292 68.4716 108.556 68.9801C108.823 69.4858 108.956 70.0753 108.956 70.7486C108.956 71.419 108.823 72.0085 108.556 72.517C108.292 73.0227 107.912 73.4176 107.418 73.7017C106.926 73.983 106.337 74.1236 105.65 74.1236ZM105.662 72.5511C105.912 72.5511 106.124 72.4744 106.297 72.321C106.471 72.1676 106.603 71.9545 106.694 71.6818C106.787 71.4091 106.834 71.0937 106.834 70.7358C106.834 70.3722 106.787 70.054 106.694 69.7812C106.603 69.5085 106.471 69.2955 106.297 69.142C106.124 68.9886 105.912 68.9119 105.662 68.9119C105.404 68.9119 105.185 68.9886 105.006 69.142C104.83 69.2955 104.695 69.5085 104.601 69.7812C104.51 70.054 104.465 70.3722 104.465 70.7358C104.465 71.0937 104.51 71.4091 104.601 71.6818C104.695 71.9545 104.83 72.1676 105.006 72.321C105.185 72.4744 105.404 72.5511 105.662 72.5511ZM112.602 74V65.2727H118.687V66.9858H114.711V68.7756H118.376V70.4929H114.711V72.2869H118.687V74H112.602ZM124.725 67.8892C124.697 67.5767 124.571 67.3338 124.346 67.1605C124.125 66.9844 123.808 66.8963 123.396 66.8963C123.123 66.8963 122.896 66.9318 122.714 67.0028C122.532 67.0739 122.396 67.1719 122.305 67.2969C122.214 67.419 122.167 67.5597 122.164 67.7188C122.159 67.8494 122.184 67.9645 122.241 68.0639C122.301 68.1634 122.386 68.2514 122.497 68.3281C122.61 68.402 122.747 68.4673 122.906 68.5241C123.065 68.581 123.244 68.6307 123.443 68.6733L124.193 68.8438C124.625 68.9375 125.005 69.0625 125.335 69.2188C125.667 69.375 125.946 69.5611 126.17 69.777C126.397 69.9929 126.569 70.2415 126.686 70.5227C126.802 70.804 126.862 71.1193 126.865 71.4688C126.862 72.0199 126.723 72.4929 126.447 72.8878C126.172 73.2827 125.775 73.5852 125.258 73.7955C124.744 74.0057 124.123 74.1108 123.396 74.1108C122.666 74.1108 122.029 74.0014 121.487 73.7827C120.944 73.5639 120.522 73.2315 120.221 72.7855C119.92 72.3395 119.765 71.7756 119.757 71.0938H121.777C121.794 71.375 121.869 71.6094 122.002 71.7969C122.136 71.9844 122.319 72.1264 122.552 72.223C122.788 72.3196 123.061 72.3679 123.37 72.3679C123.654 72.3679 123.896 72.3295 124.095 72.2528C124.297 72.1761 124.451 72.0696 124.559 71.9332C124.667 71.7969 124.723 71.6406 124.725 71.4645C124.723 71.2997 124.672 71.1591 124.572 71.0426C124.473 70.9233 124.319 70.821 124.112 70.7358C123.907 70.6477 123.646 70.5668 123.328 70.4929L122.416 70.2798C121.66 70.1065 121.065 69.8267 120.63 69.4403C120.196 69.0511 119.98 68.5256 119.983 67.8636C119.98 67.3239 120.125 66.8509 120.417 66.4446C120.71 66.0384 121.115 65.7216 121.632 65.4943C122.149 65.267 122.738 65.1534 123.4 65.1534C124.076 65.1534 124.663 65.2685 125.16 65.4986C125.66 65.7259 126.048 66.0455 126.324 66.4574C126.599 66.8693 126.74 67.3466 126.745 67.8892H124.725Z" fill="white"/>
<path d="M112.936 51.5508C112.936 52.2581 112.798 52.9585 112.527 53.6121C112.257 54.2656 111.86 54.8595 111.36 55.3598C110.86 55.8601 110.267 56.2569 109.613 56.5276C108.96 56.7983 108.26 56.9376 107.552 56.9375H68.3813C67.6742 56.9373 66.9741 56.7978 66.3209 56.5269C65.6678 56.2561 65.0744 55.8592 64.5747 55.359C64.0749 54.8587 63.6787 54.265 63.4085 53.6115C63.1383 52.9581 62.9995 52.2579 63 51.5508V12.3836C62.9998 10.9561 63.5666 9.58702 64.5758 8.57742C65.5849 7.56782 66.9538 7.00041 68.3813 7L107.552 7C108.259 6.9999 108.959 7.13908 109.613 7.40959C110.266 7.68011 110.859 8.07666 111.359 8.57659C111.859 9.07652 112.256 9.67005 112.526 10.3233C112.797 10.9765 112.936 11.6766 112.936 12.3836V51.5508Z" fill="#680BAF"/>
<path fill-rule="evenodd" clip-rule="evenodd" d="M66 56.7783C71.2601 48.6973 75.9312 44.1117 80.0133 43.0217C84.0954 41.9316 87.9819 41.767 91.6729 42.5276V57L109 33.3848L91.6729 11V24.7554C84.8483 24.8233 79.0464 27.9047 74.2673 34C69.4881 40.0953 66.7324 47.688 66 56.7783Z" fill="#FCFDFF" stroke="white" stroke-width="2" stroke-linejoin="round"/>
</svg>
