<svg width="176" height="81" viewBox="0 0 176 81" fill="none" xmlns="http://www.w3.org/2000/svg">
<rect width="176" height="81" rx="27" fill="#1B75BB"/>
<path d="M72.3778 67.8892C72.3494 67.5767 72.223 67.3338 71.9986 67.1605C71.777 66.9844 71.4602 66.8963 71.0483 66.8963C70.7756 66.8963 70.5483 66.9318 70.3665 67.0028C70.1847 67.0739 70.0483 67.1719 69.9574 67.2969C69.8665 67.419 69.8196 67.5597 69.8168 67.7188C69.8111 67.8494 69.8366 67.9645 69.8935 68.0639C69.9531 68.1634 70.0384 68.2514 70.1491 68.3281C70.2628 68.402 70.3991 68.4673 70.5582 68.5241C70.7173 68.581 70.8963 68.6307 71.0952 68.6733L71.8452 68.8438C72.277 68.9375 72.6577 69.0625 72.9872 69.2188C73.3196 69.375 73.598 69.5611 73.8224 69.777C74.0497 69.9929 74.2216 70.2415 74.3381 70.5227C74.4545 70.804 74.5142 71.1193 74.517 71.4688C74.5142 72.0199 74.375 72.4929 74.0994 72.8878C73.8239 73.2827 73.4276 73.5852 72.9105 73.7955C72.3963 74.0057 71.7756 74.1108 71.0483 74.1108C70.3182 74.1108 69.6818 74.0014 69.1392 73.7827C68.5966 73.5639 68.1747 73.2315 67.8736 72.7855C67.5724 72.3395 67.4176 71.7756 67.4091 71.0938H69.429C69.446 71.375 69.5213 71.6094 69.6548 71.7969C69.7884 71.9844 69.9716 72.1264 70.2045 72.223C70.4403 72.3196 70.7131 72.3679 71.0227 72.3679C71.3068 72.3679 71.5483 72.3295 71.7472 72.2528C71.9489 72.1761 72.1037 72.0696 72.2116 71.9332C72.3196 71.7969 72.375 71.6406 72.3778 71.4645C72.375 71.2997 72.3239 71.1591 72.2244 71.0426C72.125 70.9233 71.9716 70.821 71.7642 70.7358C71.5597 70.6477 71.2983 70.5668 70.9801 70.4929L70.0682 70.2798C69.3125 70.1065 68.7173 69.8267 68.2827 69.4403C67.848 69.0511 67.6321 68.5256 67.6349 67.8636C67.6321 67.3239 67.777 66.8509 68.0696 66.4446C68.3622 66.0384 68.767 65.7216 69.2841 65.4943C69.8011 65.267 70.3906 65.1534 71.0526 65.1534C71.7287 65.1534 72.3153 65.2685 72.8125 65.4986C73.3125 65.7259 73.7003 66.0455 73.9759 66.4574C74.2514 66.8693 74.392 67.3466 74.3977 67.8892H72.3778ZM77.6662 70.267V74H75.5824V65.2727H77.598V68.6562H77.6705C77.8182 68.2528 78.0597 67.9375 78.3949 67.7102C78.733 67.483 79.1463 67.3693 79.6349 67.3693C80.0952 67.3693 80.4957 67.4716 80.8366 67.6761C81.1776 67.8778 81.4418 68.1634 81.6293 68.5327C81.8196 68.902 81.9134 69.3338 81.9105 69.8281V74H79.8267V70.2372C79.8295 69.8736 79.7386 69.5895 79.554 69.3849C79.3693 69.1804 79.1094 69.0781 78.7741 69.0781C78.5554 69.0781 78.3622 69.1264 78.1946 69.223C78.0298 69.3168 77.9006 69.4517 77.8068 69.6278C77.7159 69.804 77.669 70.017 77.6662 70.267ZM86.2667 74.1236C85.5792 74.1236 84.9883 73.983 84.494 73.7017C84.0025 73.4176 83.6232 73.0227 83.3562 72.517C83.092 72.0085 82.9599 71.419 82.9599 70.7486C82.9599 70.0753 83.092 69.4858 83.3562 68.9801C83.6232 68.4716 84.0025 68.0767 84.494 67.7955C84.9883 67.5114 85.5792 67.3693 86.2667 67.3693C86.9542 67.3693 87.5437 67.5114 88.0352 67.7955C88.5295 68.0767 88.9087 68.4716 89.1729 68.9801C89.44 69.4858 89.5735 70.0753 89.5735 70.7486C89.5735 71.419 89.44 72.0085 89.1729 72.517C88.9087 73.0227 88.5295 73.4176 88.0352 73.7017C87.5437 73.983 86.9542 74.1236 86.2667 74.1236ZM86.2795 72.5511C86.5295 72.5511 86.7411 72.4744 86.9144 72.321C87.0877 72.1676 87.2198 71.9545 87.3107 71.6818C87.4045 71.4091 87.4513 71.0937 87.4513 70.7358C87.4513 70.3722 87.4045 70.054 87.3107 69.7812C87.2198 69.5085 87.0877 69.2955 86.9144 69.142C86.7411 68.9886 86.5295 68.9119 86.2795 68.9119C86.021 68.9119 85.8022 68.9886 85.6232 69.142C85.4471 69.2955 85.3121 69.5085 85.2184 69.7812C85.1275 70.054 85.082 70.3722 85.082 70.7358C85.082 71.0937 85.1275 71.4091 85.2184 71.6818C85.3121 71.9545 85.4471 72.1676 85.6232 72.321C85.8022 72.4744 86.021 72.5511 86.2795 72.5511ZM91.7234 74L90.0188 67.4545H92.1112L92.9933 71.6477H93.0487L93.9947 67.4545H96.0359L97.0075 71.6179H97.0629L97.9194 67.4545H100.012L98.3029 74H96.0742L95.0515 70.1861H94.979L93.9563 74H91.7234ZM103.426 74V67.4545H105.408V68.6562H105.48C105.616 68.2585 105.847 67.9446 106.17 67.7145C106.494 67.4844 106.881 67.3693 107.33 67.3693C107.784 67.3693 108.173 67.4858 108.497 67.7188C108.821 67.9517 109.027 68.2642 109.115 68.6562H109.183C109.305 68.267 109.544 67.956 109.899 67.723C110.254 67.4872 110.673 67.3693 111.156 67.3693C111.776 67.3693 112.278 67.5682 112.665 67.9659C113.051 68.3608 113.244 68.9034 113.244 69.5938V74H111.161V70.071C111.161 69.7443 111.077 69.4957 110.909 69.3253C110.741 69.152 110.524 69.0653 110.257 69.0653C109.97 69.0653 109.744 69.1591 109.58 69.3466C109.418 69.5312 109.337 69.7798 109.337 70.0923V74H107.334V70.0497C107.334 69.7457 107.251 69.5057 107.087 69.3295C106.922 69.1534 106.705 69.0653 106.435 69.0653C106.253 69.0653 106.092 69.1094 105.953 69.1974C105.814 69.2827 105.705 69.4048 105.625 69.5639C105.548 69.723 105.51 69.9105 105.51 70.1264V74H103.426ZM117.595 74.1236C116.911 74.1236 116.32 73.9886 115.822 73.7188C115.328 73.446 114.947 73.0582 114.68 72.5554C114.416 72.0497 114.284 71.4489 114.284 70.7528C114.284 70.0767 114.418 69.4858 114.685 68.9801C114.952 68.4716 115.328 68.0767 115.814 67.7955C116.3 67.5114 116.872 67.3693 117.531 67.3693C117.997 67.3693 118.423 67.4418 118.81 67.5866C119.196 67.7315 119.53 67.946 119.811 68.2301C120.092 68.5142 120.311 68.8651 120.467 69.2827C120.624 69.6974 120.702 70.1733 120.702 70.7102V71.2301H115.013V70.0199H118.763C118.76 69.7983 118.707 69.6009 118.605 69.4276C118.503 69.2543 118.362 69.1193 118.183 69.0227C118.007 68.9233 117.804 68.8736 117.574 68.8736C117.341 68.8736 117.132 68.9261 116.947 69.0312C116.763 69.1335 116.616 69.2741 116.509 69.4531C116.401 69.6293 116.344 69.8295 116.338 70.054V71.2855C116.338 71.5526 116.391 71.7869 116.496 71.9886C116.601 72.1875 116.75 72.3423 116.943 72.4531C117.136 72.5639 117.366 72.6193 117.634 72.6193C117.818 72.6193 117.986 72.5937 118.136 72.5426C118.287 72.4915 118.416 72.4162 118.524 72.3168C118.632 72.2173 118.713 72.0952 118.767 71.9503L120.68 72.0057C120.601 72.4347 120.426 72.8082 120.156 73.1264C119.889 73.4418 119.538 73.6875 119.104 73.8636C118.669 74.0369 118.166 74.1236 117.595 74.1236Z" fill="white"/>
<path d="M105.936 51.5508C105.936 52.2581 105.798 52.9585 105.527 53.6121C105.257 54.2656 104.86 54.8595 104.36 55.3598C103.86 55.8601 103.267 56.2569 102.613 56.5276C101.96 56.7983 101.26 56.9376 100.552 56.9375H61.3813C60.6742 56.9373 59.9741 56.7978 59.3209 56.5269C58.6678 56.2561 58.0744 55.8592 57.5747 55.359C57.0749 54.8587 56.6787 54.265 56.4085 53.6115C56.1383 52.9581 55.9995 52.2579 56 51.5508V12.3836C55.9998 10.9561 56.5666 9.58702 57.5758 8.57742C58.5849 7.56782 59.9538 7.00041 61.3813 7L100.552 7C101.259 6.9999 101.959 7.13908 102.613 7.40959C103.266 7.68011 103.859 8.07666 104.359 8.57659C104.859 9.07652 105.256 9.67005 105.526 10.3233C105.797 10.9765 105.936 11.6766 105.936 12.3836V51.5508Z" fill="#1B75BB"/>
<path d="M90.5 17.1389C73.0077 17.1389 67.7506 33.2035 67.7025 33.3662L67.4596 34.1333L67.7002 34.9005C67.7506 35.0632 73.0077 51.1278 90.5 51.1278C107.992 51.1278 113.249 35.0632 113.297 34.9005L113.54 34.1333L113.3 33.3662C113.249 33.2035 107.992 17.1389 90.5 17.1389ZM90.5 43.8445C85.4446 43.8445 81.3333 39.489 81.3333 34.1333C81.3333 28.7777 85.4446 24.4222 90.5 24.4222C95.5554 24.4222 99.6666 28.7777 99.6666 34.1333C99.6666 39.489 95.5554 43.8445 90.5 43.8445Z" fill="white"/>
<path d="M90.5 29.2778C88.0158 29.2778 85.9167 31.5016 85.9167 34.1334C85.9167 36.7651 88.0158 38.9889 90.5 38.9889C92.9842 38.9889 95.0833 36.7651 95.0833 34.1334C95.0833 31.5016 92.9842 29.2778 90.5 29.2778Z" fill="white"/>
</svg>
