<?xml version="1.0" encoding="UTF-8" standalone="no"?>
<?xml-stylesheet type="text/css" href="/css/style_cellphone.css"?>
<svg  width="88" height="88" viewBox="0 0 88 88" fill="none" xmlns="http://www.w3.org/2000/svg">
<circle id="imagen001" cx="44" cy="44" r="43.5" fill="url(#paint0_radial_11_83)" stroke="url(#paint1_radial_11_83)"/>
<path d="M20.9357 72V59.6364H26.0913C27.0169 59.6364 27.7917 59.7672 28.4155 60.0288C29.0433 60.2904 29.5142 60.6566 29.8281 61.1275C30.1461 61.5984 30.305 62.1437 30.305 62.7635C30.305 63.2344 30.2064 63.6549 30.0092 64.0252C29.812 64.3915 29.5404 64.6953 29.1942 64.9368C28.8481 65.1783 28.4477 65.3473 27.9929 65.4439V65.5646C28.492 65.5888 28.9528 65.7236 29.3754 65.9691C29.802 66.2146 30.1441 66.5567 30.4016 66.9954C30.6592 67.43 30.788 67.9452 30.788 68.5408C30.788 69.2049 30.619 69.7985 30.2809 70.3217C29.9428 70.8409 29.4538 71.2514 28.8139 71.5533C28.174 71.8511 27.3973 72 26.4837 72H20.9357ZM23.924 69.5913H25.7713C26.4193 69.5913 26.8962 69.4685 27.2021 69.223C27.512 68.9775 27.6669 68.6354 27.6669 68.1967C27.6669 67.8788 27.5924 67.6051 27.4435 67.3757C27.2946 67.1423 27.0833 66.9632 26.8097 66.8384C26.536 66.7096 26.208 66.6452 25.8256 66.6452H23.924V69.5913ZM23.924 64.7195H25.5781C25.9041 64.7195 26.1939 64.6651 26.4474 64.5565C26.701 64.4478 26.8982 64.2908 27.0391 64.0856C27.1839 63.8803 27.2564 63.6328 27.2564 63.343C27.2564 62.9285 27.1095 62.6025 26.8157 62.3651C26.5219 62.1276 26.1255 62.0089 25.6264 62.0089H23.924V64.7195ZM34.8991 72H31.6875L35.859 59.6364H39.8374L44.0089 72H40.7972L37.8935 62.7514H37.7969L34.8991 72ZM34.4705 67.1342H41.1836V69.4041H34.4705V67.1342ZM55.9816 64.1158H52.9632C52.9229 63.8059 52.8404 63.5262 52.7156 63.2766C52.5909 63.0271 52.4259 62.8138 52.2206 62.6367C52.0154 62.4596 51.7719 62.3248 51.4901 62.2322C51.2124 62.1357 50.9046 62.0874 50.5665 62.0874C49.9668 62.0874 49.4497 62.2343 49.015 62.5281C48.5844 62.8219 48.2523 63.2464 48.0189 63.8018C47.7895 64.3572 47.6748 65.0294 47.6748 65.8182C47.6748 66.6392 47.7915 67.3274 48.0249 67.8828C48.2624 68.4342 48.5944 68.8507 49.021 69.1325C49.4517 69.4102 49.9608 69.549 50.5484 69.549C50.8784 69.549 51.1782 69.5067 51.4479 69.4222C51.7216 69.3377 51.961 69.215 52.1663 69.054C52.3756 68.889 52.5466 68.6897 52.6794 68.4563C52.8163 68.2189 52.9108 67.9512 52.9632 67.6534L55.9816 67.6715C55.9293 68.2189 55.7703 68.7582 55.5047 69.2894C55.2431 69.8207 54.8829 70.3056 54.4241 70.7443C53.9653 71.179 53.4059 71.5251 52.7458 71.7827C52.0898 72.0402 51.3372 72.169 50.488 72.169C49.3692 72.169 48.367 71.9235 47.4816 71.4325C46.6002 70.9375 45.904 70.2171 45.3928 69.2713C44.8817 68.3255 44.6262 67.1745 44.6262 65.8182C44.6262 64.4579 44.8857 63.3048 45.4049 62.359C45.9241 61.4132 46.6264 60.6948 47.5118 60.2038C48.3972 59.7128 49.3893 59.4673 50.488 59.4673C51.2366 59.4673 51.9288 59.572 52.5647 59.7812C53.2006 59.9865 53.76 60.2884 54.243 60.6868C54.7259 61.0812 55.1183 61.5662 55.4202 62.1417C55.722 62.7172 55.9092 63.3752 55.9816 64.1158ZM57.6916 72V59.6364H60.6799V64.8643H60.8429L64.9299 59.6364H68.4494L64.0666 65.1541L68.5279 72H64.954L61.8752 67.1403L60.6799 68.6495V72H57.6916Z" fill="white"/>
<path d="M20 37.4975L43.215 20V30.9146H68V43.9701H43.215V55L20 37.4975Z" fill="white"/>
<defs>
<radialGradient id="paint0_radial_11_83" cx="0" cy="0" r="1" gradientUnits="userSpaceOnUse" gradientTransform="translate(44 44) rotate(90) scale(44)">
<stop stop-color="#FA1819"/>
<stop offset="1" stop-color="#9F0000"/>
</radialGradient>
<radialGradient id="paint1_radial_11_83" cx="0" cy="0" r="1" gradientUnits="userSpaceOnUse" gradientTransform="translate(44 44) rotate(90) scale(44)">
<stop stop-color="#B52425"/>
<stop offset="1" stop-color="#F70E0F"/>
</radialGradient>
</defs>
</svg>
