<svg width="176" height="81" viewBox="0 0 176 81" fill="none" xmlns="http://www.w3.org/2000/svg">
<rect width="176" height="81" rx="27" fill="#1B75BB"/>
<path d="M67.6605 74V65.2727H71.2656C71.919 65.2727 72.483 65.3906 72.9574 65.6264C73.4347 65.8594 73.8026 66.1946 74.0611 66.6321C74.3196 67.0668 74.4489 67.5824 74.4489 68.179C74.4489 68.7841 74.3168 69.2983 74.0526 69.7216C73.7884 70.142 73.4134 70.4631 72.9276 70.6847C72.4418 70.9034 71.8665 71.0128 71.2017 71.0128H68.9219V69.3509H70.8097C71.1278 69.3509 71.3935 69.3097 71.6065 69.2273C71.8224 69.142 71.9858 69.0142 72.0966 68.8438C72.2074 68.6705 72.2628 68.4489 72.2628 68.179C72.2628 67.9091 72.2074 67.6861 72.0966 67.5099C71.9858 67.331 71.8224 67.1974 71.6065 67.1094C71.3906 67.0185 71.125 66.973 70.8097 66.973H69.7699V74H67.6605ZM72.5739 70.0114L74.7472 74H72.446L70.3153 70.0114H72.5739ZM78.5366 74.1236C77.8519 74.1236 77.261 73.9886 76.7638 73.7188C76.2695 73.446 75.8888 73.0582 75.6218 72.5554C75.3576 72.0497 75.2255 71.4489 75.2255 70.7528C75.2255 70.0767 75.359 69.4858 75.6261 68.9801C75.8931 68.4716 76.2695 68.0767 76.7553 67.7955C77.2411 67.5114 77.8136 67.3693 78.4727 67.3693C78.9386 67.3693 79.3647 67.4418 79.7511 67.5866C80.1374 67.7315 80.4712 67.946 80.7525 68.2301C81.0337 68.5142 81.2525 68.8651 81.4087 69.2827C81.565 69.6974 81.6431 70.1733 81.6431 70.7102V71.2301H75.9542V70.0199H79.7042C79.7013 69.7983 79.6488 69.6009 79.5465 69.4276C79.4442 69.2543 79.3036 69.1193 79.1246 69.0227C78.9485 68.9233 78.7454 68.8736 78.5153 68.8736C78.2823 68.8736 78.0735 68.9261 77.8888 69.0312C77.7042 69.1335 77.5579 69.2741 77.4499 69.4531C77.342 69.6293 77.2852 69.8295 77.2795 70.054V71.2855C77.2795 71.5526 77.332 71.7869 77.4371 71.9886C77.5423 72.1875 77.6914 72.3423 77.8846 72.4531C78.0778 72.5639 78.3079 72.6193 78.5749 72.6193C78.7596 72.6193 78.9272 72.5937 79.0778 72.5426C79.2283 72.4915 79.3576 72.4162 79.4656 72.3168C79.5735 72.2173 79.6545 72.0952 79.7085 71.9503L81.6218 72.0057C81.5423 72.4347 81.3675 72.8082 81.0977 73.1264C80.8306 73.4418 80.4798 73.6875 80.0451 73.8636C79.6104 74.0369 79.1076 74.1236 78.5366 74.1236ZM82.7074 76.4545V67.4545H84.7699V68.5753H84.8338C84.919 68.3764 85.0398 68.1847 85.196 68C85.3551 67.8153 85.5568 67.6648 85.8011 67.5483C86.0483 67.429 86.3438 67.3693 86.6875 67.3693C87.142 67.3693 87.5668 67.4886 87.9616 67.7273C88.3594 67.9659 88.6804 68.3338 88.9247 68.831C89.169 69.3281 89.2912 69.9616 89.2912 70.7315C89.2912 71.473 89.1733 72.0938 88.9375 72.5938C88.7045 73.0938 88.3892 73.4688 87.9915 73.7188C87.5966 73.9688 87.1577 74.0938 86.6747 74.0938C86.3452 74.0938 86.0597 74.0398 85.8182 73.9318C85.5767 73.8239 85.3736 73.6818 85.2088 73.5057C85.0469 73.3295 84.9219 73.1406 84.8338 72.9389H84.7912V76.4545H82.7074ZM84.7486 70.7273C84.7486 71.0795 84.7955 71.3864 84.8892 71.6477C84.9858 71.9091 85.1236 72.1122 85.3026 72.2571C85.4844 72.3991 85.7017 72.4702 85.9545 72.4702C86.2102 72.4702 86.4276 72.3991 86.6065 72.2571C86.7855 72.1122 86.9205 71.9091 87.0114 71.6477C87.1051 71.3864 87.152 71.0795 87.152 70.7273C87.152 70.375 87.1051 70.0696 87.0114 69.8111C86.9205 69.5526 86.7855 69.3523 86.6065 69.2102C86.4304 69.0682 86.2131 68.9972 85.9545 68.9972C85.6989 68.9972 85.4815 69.0668 85.3026 69.206C85.1236 69.3452 84.9858 69.544 84.8892 69.8026C84.7955 70.0611 84.7486 70.3693 84.7486 70.7273ZM93.4428 74.1236C92.7582 74.1236 92.1673 73.9886 91.6701 73.7188C91.1758 73.446 90.7951 73.0582 90.5281 72.5554C90.2638 72.0497 90.1317 71.4489 90.1317 70.7528C90.1317 70.0767 90.2653 69.4858 90.5323 68.9801C90.7994 68.4716 91.1758 68.0767 91.6616 67.7955C92.1474 67.5114 92.7198 67.3693 93.3789 67.3693C93.8448 67.3693 94.271 67.4418 94.6573 67.5866C95.0437 67.7315 95.3775 67.946 95.6587 68.2301C95.94 68.5142 96.1587 68.8651 96.315 69.2827C96.4712 69.6974 96.5494 70.1733 96.5494 70.7102V71.2301H90.8604V70.0199H94.6104C94.6076 69.7983 94.555 69.6009 94.4528 69.4276C94.3505 69.2543 94.2099 69.1193 94.0309 69.0227C93.8548 68.9233 93.6516 68.8736 93.4215 68.8736C93.1886 68.8736 92.9798 68.9261 92.7951 69.0312C92.6104 69.1335 92.4641 69.2741 92.3562 69.4531C92.2482 69.6293 92.1914 69.8295 92.1857 70.054V71.2855C92.1857 71.5526 92.2383 71.7869 92.3434 71.9886C92.4485 72.1875 92.5977 72.3423 92.7908 72.4531C92.984 72.5639 93.2141 72.6193 93.4812 72.6193C93.6658 72.6193 93.8335 72.5937 93.984 72.5426C94.1346 72.4915 94.2638 72.4162 94.3718 72.3168C94.4798 72.2173 94.5607 72.0952 94.6147 71.9503L96.5281 72.0057C96.4485 72.4347 96.2738 72.8082 96.0039 73.1264C95.7369 73.4418 95.386 73.6875 94.9513 73.8636C94.5167 74.0369 94.0138 74.1236 93.4428 74.1236ZM99.4588 74.1108C99.0412 74.1108 98.6705 74.0412 98.3466 73.902C98.0256 73.7599 97.7713 73.5469 97.5838 73.2628C97.3991 72.9759 97.3068 72.6165 97.3068 72.1847C97.3068 71.821 97.3707 71.5142 97.4986 71.2642C97.6264 71.0142 97.8026 70.8111 98.027 70.6548C98.2514 70.4986 98.5099 70.3807 98.8026 70.3011C99.0952 70.2187 99.4077 70.1634 99.7401 70.1349C100.112 70.1009 100.412 70.0653 100.639 70.0284C100.866 69.9886 101.031 69.9332 101.134 69.8622C101.239 69.7884 101.291 69.6847 101.291 69.5511V69.5298C101.291 69.3111 101.216 69.142 101.065 69.0227C100.915 68.9034 100.712 68.8438 100.456 68.8438C100.18 68.8438 99.9588 68.9034 99.7912 69.0227C99.6236 69.142 99.517 69.3068 99.4716 69.517L97.5497 69.4489C97.6065 69.0511 97.7528 68.696 97.9886 68.3835C98.2273 68.0682 98.554 67.821 98.9688 67.642C99.3864 67.4602 99.8878 67.3693 100.473 67.3693C100.891 67.3693 101.276 67.419 101.628 67.5185C101.98 67.6151 102.287 67.7571 102.548 67.9446C102.81 68.1293 103.011 68.3565 103.153 68.6264C103.298 68.8963 103.371 69.2045 103.371 69.5511V74H101.411V73.0881H101.359C101.243 73.3097 101.094 73.4972 100.912 73.6506C100.733 73.804 100.521 73.919 100.277 73.9957C100.036 74.0724 99.7628 74.1108 99.4588 74.1108ZM100.102 72.7472C100.327 72.7472 100.528 72.7017 100.707 72.6108C100.889 72.5199 101.034 72.3949 101.142 72.2358C101.25 72.0739 101.304 71.8864 101.304 71.6733V71.0511C101.244 71.0824 101.172 71.1108 101.087 71.1364C101.004 71.1619 100.913 71.1861 100.814 71.2088C100.714 71.2315 100.612 71.2514 100.507 71.2685C100.402 71.2855 100.301 71.3011 100.205 71.3153C100.009 71.3466 99.8409 71.3949 99.7017 71.4602C99.5653 71.5256 99.4602 71.6108 99.3864 71.7159C99.3153 71.8182 99.2798 71.9403 99.2798 72.0824C99.2798 72.2983 99.3565 72.4631 99.5099 72.5767C99.6662 72.6903 99.8636 72.7472 100.102 72.7472ZM108.339 67.4545V68.9886H104.21V67.4545H108.339ZM105.075 65.8864H107.159V71.9418C107.159 72.0696 107.179 72.1733 107.219 72.2528C107.261 72.3295 107.322 72.3849 107.402 72.419C107.482 72.4503 107.577 72.4659 107.688 72.4659C107.767 72.4659 107.851 72.4588 107.939 72.4446C108.03 72.4276 108.098 72.4134 108.143 72.402L108.459 73.9062C108.359 73.9347 108.219 73.9702 108.037 74.0128C107.858 74.0554 107.643 74.0824 107.393 74.0938C106.905 74.1165 106.486 74.0597 106.136 73.9233C105.79 73.7841 105.524 73.5682 105.339 73.2756C105.158 72.983 105.07 72.6151 105.075 72.1719V65.8864Z" fill="white"/>
<path d="M105.936 51.5508C105.936 52.2581 105.798 52.9585 105.527 53.6121C105.257 54.2656 104.86 54.8595 104.36 55.3598C103.86 55.8601 103.267 56.2569 102.613 56.5276C101.96 56.7983 101.26 56.9376 100.552 56.9375H61.3813C60.6742 56.9373 59.9741 56.7978 59.3209 56.5269C58.6678 56.2561 58.0744 55.8592 57.5747 55.359C57.0749 54.8587 56.6787 54.265 56.4085 53.6115C56.1383 52.9581 55.9995 52.2579 56 51.5508V12.3836C55.9998 10.9561 56.5666 9.58702 57.5758 8.57742C58.5849 7.56782 59.9538 7.00041 61.3813 7L100.552 7C101.259 6.9999 101.959 7.13908 102.613 7.40959C103.266 7.68011 103.859 8.07666 104.359 8.57659C104.859 9.07652 105.256 9.67005 105.526 10.3233C105.797 10.9765 105.936 11.6766 105.936 12.3836V51.5508Z" fill="#1B75BB"/>
<path d="M64.4751 36.8554C67.4559 36.1657 70.5028 35.9081 73.6728 35.8377C73.8883 30.1359 75.6095 26.047 78.8867 23.6214C79.6648 23.0242 80.5837 22.5605 81.6435 22.2304C82.6949 21.9024 83.7242 21.6942 84.7104 21.6111C85.7019 21.5281 87.0656 21.485 88.8109 21.485H96.7522V21.5218H107.235V20.6522C107.233 19.1852 107.086 17.9936 106.793 17.0775C106.501 16.1592 105.872 15.4471 104.906 14.941C103.944 14.4374 102.503 14.183 100.6 14.183H86.9321C84.5632 14.183 82.4194 14.3196 80.5343 14.5856C78.7121 14.835 76.9266 15.3027 75.2163 15.9788C73.5789 16.6307 72.045 17.5172 70.6626 18.6104C68.9547 19.9706 67.4866 21.6071 66.3193 23.4521C65.1908 25.2528 64.356 27.2792 63.8148 29.5314C63.3354 31.5238 63.0999 33.7359 63.0452 36.1037C63.5552 36.2848 64.0368 36.538 64.4751 36.8554Z" fill="white"/>
<path d="M99.0285 29.0971C99.6604 30.0423 100.841 30.7215 102.236 30.833L117.148 17.8713L102.249 5C100.841 5.11145 99.6604 5.78855 99.0295 6.73797L99.0285 29.0971Z" fill="white"/>
<path d="M68.3884 40.9717C71.3644 40.9717 73.7769 38.5592 73.7769 35.5832C73.7769 32.6073 71.3644 30.1948 68.3884 30.1948C65.4125 30.1948 63 32.6073 63 35.5832C63 38.5592 65.4125 40.9717 68.3884 40.9717Z" fill="white"/>
<path d="M116.525 31.4176C113.546 32.1073 110.501 32.3649 107.331 32.4353C107.116 38.136 105.395 42.226 102.116 44.6516C101.34 45.2488 100.421 45.7125 99.3586 46.0426C98.3072 46.3706 97.2779 46.5799 96.2917 46.6619C95.2991 46.7439 93.9376 46.788 92.1891 46.788H84.2489V46.7502H73.7643V47.6197C73.765 49.0868 73.9125 50.2784 74.2069 51.1945C74.4992 52.1113 75.1276 52.8235 76.0921 53.3309C77.0552 53.8346 78.4956 54.0879 80.3986 54.0879H94.0669C96.4367 54.0879 98.5795 53.9523 100.466 53.6853C102.287 53.4339 104.073 52.9663 105.784 52.2921C107.42 51.64 108.954 50.7535 110.335 49.6605C112.044 48.3004 113.512 46.6639 114.68 44.8188C115.807 43.0174 116.642 40.991 117.186 38.7396C117.662 36.7471 117.901 34.535 117.954 32.1672C117.443 31.9868 116.962 31.7344 116.523 31.4176" fill="white"/>
<path d="M81.9747 39.1685C81.3396 38.2244 80.16 37.5441 78.7648 37.4337L63.8537 50.3944L78.7532 63.2667C80.161 63.1553 81.3407 62.4782 81.9747 61.5287V39.1685ZM112.615 27.2982C113.68 27.2988 114.722 27.6154 115.608 28.2079C116.493 28.8004 117.184 29.6423 117.591 30.627C117.998 31.6117 118.104 32.6951 117.896 33.7402C117.688 34.7853 117.174 35.7451 116.42 36.4983C115.666 37.2515 114.706 37.7643 113.661 37.9719C112.616 38.1794 111.532 38.0724 110.548 37.6643C109.564 37.2562 108.722 36.5654 108.13 35.6792C107.539 34.793 107.223 33.7512 107.223 32.6856C107.223 31.9778 107.363 31.277 107.634 30.6233C107.905 29.9695 108.302 29.3755 108.803 28.8752C109.304 28.375 109.898 27.9782 110.552 27.7076C111.206 27.437 111.907 27.2979 112.615 27.2982Z" fill="white"/>
</svg>
