<svg width="176" height="81" viewBox="0 0 176 81" fill="none" xmlns="http://www.w3.org/2000/svg">
<rect width="176" height="81" rx="27" fill="#680BAF"/>
<path d="M67.6605 74V65.2727H71.2656C71.919 65.2727 72.483 65.3906 72.9574 65.6264C73.4347 65.8594 73.8026 66.1946 74.0611 66.6321C74.3196 67.0668 74.4489 67.5824 74.4489 68.179C74.4489 68.7841 74.3168 69.2983 74.0526 69.7216C73.7884 70.142 73.4134 70.4631 72.9276 70.6847C72.4418 70.9034 71.8665 71.0128 71.2017 71.0128H68.9219V69.3509H70.8097C71.1278 69.3509 71.3935 69.3097 71.6065 69.2273C71.8224 69.142 71.9858 69.0142 72.0966 68.8438C72.2074 68.6705 72.2628 68.4489 72.2628 68.179C72.2628 67.9091 72.2074 67.6861 72.0966 67.5099C71.9858 67.331 71.8224 67.1974 71.6065 67.1094C71.3906 67.0185 71.125 66.973 70.8097 66.973H69.7699V74H67.6605ZM72.5739 70.0114L74.7472 74H72.446L70.3153 70.0114H72.5739ZM78.5366 74.1236C77.8519 74.1236 77.261 73.9886 76.7638 73.7188C76.2695 73.446 75.8888 73.0582 75.6218 72.5554C75.3576 72.0497 75.2255 71.4489 75.2255 70.7528C75.2255 70.0767 75.359 69.4858 75.6261 68.9801C75.8931 68.4716 76.2695 68.0767 76.7553 67.7955C77.2411 67.5114 77.8136 67.3693 78.4727 67.3693C78.9386 67.3693 79.3647 67.4418 79.7511 67.5866C80.1374 67.7315 80.4712 67.946 80.7525 68.2301C81.0337 68.5142 81.2525 68.8651 81.4087 69.2827C81.565 69.6974 81.6431 70.1733 81.6431 70.7102V71.2301H75.9542V70.0199H79.7042C79.7013 69.7983 79.6488 69.6009 79.5465 69.4276C79.4442 69.2543 79.3036 69.1193 79.1246 69.0227C78.9485 68.9233 78.7454 68.8736 78.5153 68.8736C78.2823 68.8736 78.0735 68.9261 77.8888 69.0312C77.7042 69.1335 77.5579 69.2741 77.4499 69.4531C77.342 69.6293 77.2852 69.8295 77.2795 70.054V71.2855C77.2795 71.5526 77.332 71.7869 77.4371 71.9886C77.5423 72.1875 77.6914 72.3423 77.8846 72.4531C78.0778 72.5639 78.3079 72.6193 78.5749 72.6193C78.7596 72.6193 78.9272 72.5937 79.0778 72.5426C79.2283 72.4915 79.3576 72.4162 79.4656 72.3168C79.5735 72.2173 79.6545 72.0952 79.7085 71.9503L81.6218 72.0057C81.5423 72.4347 81.3675 72.8082 81.0977 73.1264C80.8306 73.4418 80.4798 73.6875 80.0451 73.8636C79.6104 74.0369 79.1076 74.1236 78.5366 74.1236ZM82.7074 76.4545V67.4545H84.7699V68.5753H84.8338C84.919 68.3764 85.0398 68.1847 85.196 68C85.3551 67.8153 85.5568 67.6648 85.8011 67.5483C86.0483 67.429 86.3438 67.3693 86.6875 67.3693C87.142 67.3693 87.5668 67.4886 87.9616 67.7273C88.3594 67.9659 88.6804 68.3338 88.9247 68.831C89.169 69.3281 89.2912 69.9616 89.2912 70.7315C89.2912 71.473 89.1733 72.0938 88.9375 72.5938C88.7045 73.0938 88.3892 73.4688 87.9915 73.7188C87.5966 73.9688 87.1577 74.0938 86.6747 74.0938C86.3452 74.0938 86.0597 74.0398 85.8182 73.9318C85.5767 73.8239 85.3736 73.6818 85.2088 73.5057C85.0469 73.3295 84.9219 73.1406 84.8338 72.9389H84.7912V76.4545H82.7074ZM84.7486 70.7273C84.7486 71.0795 84.7955 71.3864 84.8892 71.6477C84.9858 71.9091 85.1236 72.1122 85.3026 72.2571C85.4844 72.3991 85.7017 72.4702 85.9545 72.4702C86.2102 72.4702 86.4276 72.3991 86.6065 72.2571C86.7855 72.1122 86.9205 71.9091 87.0114 71.6477C87.1051 71.3864 87.152 71.0795 87.152 70.7273C87.152 70.375 87.1051 70.0696 87.0114 69.8111C86.9205 69.5526 86.7855 69.3523 86.6065 69.2102C86.4304 69.0682 86.2131 68.9972 85.9545 68.9972C85.6989 68.9972 85.4815 69.0668 85.3026 69.206C85.1236 69.3452 84.9858 69.544 84.8892 69.8026C84.7955 70.0611 84.7486 70.3693 84.7486 70.7273ZM93.4428 74.1236C92.7582 74.1236 92.1673 73.9886 91.6701 73.7188C91.1758 73.446 90.7951 73.0582 90.5281 72.5554C90.2638 72.0497 90.1317 71.4489 90.1317 70.7528C90.1317 70.0767 90.2653 69.4858 90.5323 68.9801C90.7994 68.4716 91.1758 68.0767 91.6616 67.7955C92.1474 67.5114 92.7198 67.3693 93.3789 67.3693C93.8448 67.3693 94.271 67.4418 94.6573 67.5866C95.0437 67.7315 95.3775 67.946 95.6587 68.2301C95.94 68.5142 96.1587 68.8651 96.315 69.2827C96.4712 69.6974 96.5494 70.1733 96.5494 70.7102V71.2301H90.8604V70.0199H94.6104C94.6076 69.7983 94.555 69.6009 94.4528 69.4276C94.3505 69.2543 94.2099 69.1193 94.0309 69.0227C93.8548 68.9233 93.6516 68.8736 93.4215 68.8736C93.1886 68.8736 92.9798 68.9261 92.7951 69.0312C92.6104 69.1335 92.4641 69.2741 92.3562 69.4531C92.2482 69.6293 92.1914 69.8295 92.1857 70.054V71.2855C92.1857 71.5526 92.2383 71.7869 92.3434 71.9886C92.4485 72.1875 92.5977 72.3423 92.7908 72.4531C92.984 72.5639 93.2141 72.6193 93.4812 72.6193C93.6658 72.6193 93.8335 72.5937 93.984 72.5426C94.1346 72.4915 94.2638 72.4162 94.3718 72.3168C94.4798 72.2173 94.5607 72.0952 94.6147 71.9503L96.5281 72.0057C96.4485 72.4347 96.2738 72.8082 96.0039 73.1264C95.7369 73.4418 95.386 73.6875 94.9513 73.8636C94.5167 74.0369 94.0138 74.1236 93.4428 74.1236ZM99.4588 74.1108C99.0412 74.1108 98.6705 74.0412 98.3466 73.902C98.0256 73.7599 97.7713 73.5469 97.5838 73.2628C97.3991 72.9759 97.3068 72.6165 97.3068 72.1847C97.3068 71.821 97.3707 71.5142 97.4986 71.2642C97.6264 71.0142 97.8026 70.8111 98.027 70.6548C98.2514 70.4986 98.5099 70.3807 98.8026 70.3011C99.0952 70.2187 99.4077 70.1634 99.7401 70.1349C100.112 70.1009 100.412 70.0653 100.639 70.0284C100.866 69.9886 101.031 69.9332 101.134 69.8622C101.239 69.7884 101.291 69.6847 101.291 69.5511V69.5298C101.291 69.3111 101.216 69.142 101.065 69.0227C100.915 68.9034 100.712 68.8438 100.456 68.8438C100.18 68.8438 99.9588 68.9034 99.7912 69.0227C99.6236 69.142 99.517 69.3068 99.4716 69.517L97.5497 69.4489C97.6065 69.0511 97.7528 68.696 97.9886 68.3835C98.2273 68.0682 98.554 67.821 98.9688 67.642C99.3864 67.4602 99.8878 67.3693 100.473 67.3693C100.891 67.3693 101.276 67.419 101.628 67.5185C101.98 67.6151 102.287 67.7571 102.548 67.9446C102.81 68.1293 103.011 68.3565 103.153 68.6264C103.298 68.8963 103.371 69.2045 103.371 69.5511V74H101.411V73.0881H101.359C101.243 73.3097 101.094 73.4972 100.912 73.6506C100.733 73.804 100.521 73.919 100.277 73.9957C100.036 74.0724 99.7628 74.1108 99.4588 74.1108ZM100.102 72.7472C100.327 72.7472 100.528 72.7017 100.707 72.6108C100.889 72.5199 101.034 72.3949 101.142 72.2358C101.25 72.0739 101.304 71.8864 101.304 71.6733V71.0511C101.244 71.0824 101.172 71.1108 101.087 71.1364C101.004 71.1619 100.913 71.1861 100.814 71.2088C100.714 71.2315 100.612 71.2514 100.507 71.2685C100.402 71.2855 100.301 71.3011 100.205 71.3153C100.009 71.3466 99.8409 71.3949 99.7017 71.4602C99.5653 71.5256 99.4602 71.6108 99.3864 71.7159C99.3153 71.8182 99.2798 71.9403 99.2798 72.0824C99.2798 72.2983 99.3565 72.4631 99.5099 72.5767C99.6662 72.6903 99.8636 72.7472 100.102 72.7472ZM108.339 67.4545V68.9886H104.21V67.4545H108.339ZM105.075 65.8864H107.159V71.9418C107.159 72.0696 107.179 72.1733 107.219 72.2528C107.261 72.3295 107.322 72.3849 107.402 72.419C107.482 72.4503 107.577 72.4659 107.688 72.4659C107.767 72.4659 107.851 72.4588 107.939 72.4446C108.03 72.4276 108.098 72.4134 108.143 72.402L108.459 73.9062C108.359 73.9347 108.219 73.9702 108.037 74.0128C107.858 74.0554 107.643 74.0824 107.393 74.0938C106.905 74.1165 106.486 74.0597 106.136 73.9233C105.79 73.7841 105.524 73.5682 105.339 73.2756C105.158 72.983 105.07 72.6151 105.075 72.1719V65.8864ZM111.981 74V65.2727H118.066V66.9858H114.09V68.7756H117.755V70.4929H114.09V72.2869H118.066V74H111.981ZM124.104 67.8892C124.076 67.5767 123.95 67.3338 123.725 67.1605C123.504 66.9844 123.187 66.8963 122.775 66.8963C122.502 66.8963 122.275 66.9318 122.093 67.0028C121.911 67.0739 121.775 67.1719 121.684 67.2969C121.593 67.419 121.546 67.5597 121.543 67.7188C121.538 67.8494 121.563 67.9645 121.62 68.0639C121.68 68.1634 121.765 68.2514 121.876 68.3281C121.989 68.402 122.126 68.4673 122.285 68.5241C122.444 68.581 122.623 68.6307 122.822 68.6733L123.572 68.8438C124.004 68.9375 124.384 69.0625 124.714 69.2188C125.046 69.375 125.325 69.5611 125.549 69.777C125.776 69.9929 125.948 70.2415 126.065 70.5227C126.181 70.804 126.241 71.1193 126.244 71.4688C126.241 72.0199 126.102 72.4929 125.826 72.8878C125.55 73.2827 125.154 73.5852 124.637 73.7955C124.123 74.0057 123.502 74.1108 122.775 74.1108C122.045 74.1108 121.408 74.0014 120.866 73.7827C120.323 73.5639 119.901 73.2315 119.6 72.7855C119.299 72.3395 119.144 71.7756 119.136 71.0938H121.156C121.173 71.375 121.248 71.6094 121.381 71.7969C121.515 71.9844 121.698 72.1264 121.931 72.223C122.167 72.3196 122.44 72.3679 122.749 72.3679C123.033 72.3679 123.275 72.3295 123.474 72.2528C123.675 72.1761 123.83 72.0696 123.938 71.9332C124.046 71.7969 124.102 71.6406 124.104 71.4645C124.102 71.2997 124.05 71.1591 123.951 71.0426C123.852 70.9233 123.698 70.821 123.491 70.7358C123.286 70.6477 123.025 70.5668 122.707 70.4929L121.795 70.2798C121.039 70.1065 120.444 69.8267 120.009 69.4403C119.575 69.0511 119.359 68.5256 119.362 67.8636C119.359 67.3239 119.504 66.8509 119.796 66.4446C120.089 66.0384 120.494 65.7216 121.011 65.4943C121.528 65.267 122.117 65.1534 122.779 65.1534C123.455 65.1534 124.042 65.2685 124.539 65.4986C125.039 65.7259 125.427 66.0455 125.702 66.4574C125.978 66.8693 126.119 67.3466 126.124 67.8892H124.104Z" fill="white"/>
<path d="M112.936 51.5508C112.936 52.2581 112.798 52.9585 112.527 53.6121C112.257 54.2656 111.86 54.8595 111.36 55.3598C110.86 55.8601 110.267 56.2569 109.613 56.5276C108.96 56.7983 108.26 56.9376 107.552 56.9375H68.3813C67.6742 56.9373 66.9741 56.7978 66.3209 56.5269C65.6678 56.2561 65.0744 55.8592 64.5747 55.359C64.0749 54.8587 63.6787 54.265 63.4085 53.6115C63.1383 52.9581 62.9995 52.2579 63 51.5508V12.3836C62.9998 10.9561 63.5666 9.58702 64.5758 8.57742C65.5849 7.56782 66.9538 7.00041 68.3813 7L107.552 7C108.259 6.9999 108.959 7.13908 109.613 7.40959C110.266 7.68011 110.859 8.07666 111.359 8.57659C111.859 9.07652 112.256 9.67005 112.526 10.3233C112.797 10.9765 112.936 11.6766 112.936 12.3836V51.5508Z" fill="#680BAF"/>
<path d="M67.1533 36.149C69.4837 35.6045 71.8658 35.4011 74.3442 35.3455C74.5127 30.8441 75.8583 27.616 78.4205 25.7011C79.0288 25.2296 79.7472 24.8636 80.5758 24.6029C81.3978 24.344 82.2026 24.1796 82.9736 24.114C83.7488 24.0485 84.8149 24.0144 86.1794 24.0144H92.3881V24.0435H100.583V23.357C100.582 22.1988 100.467 21.2581 100.238 20.5348C100.01 19.8099 99.5179 19.2477 98.7627 18.8482C98.0106 18.4506 96.8844 18.2497 95.3966 18.2497H84.7105C82.8585 18.2497 81.1825 18.3576 79.7086 18.5676C78.284 18.7644 76.8881 19.1337 75.5509 19.6674C74.2708 20.1822 73.0715 20.882 71.9908 21.7451C70.6555 22.8188 69.5077 24.1108 68.5951 25.5675C67.7128 26.9891 67.0601 28.5889 66.637 30.3668C66.2622 31.9398 66.0781 33.6862 66.0353 35.5555C66.4341 35.6985 66.8105 35.8984 67.1533 36.149Z" fill="white"/>
<path d="M94.1677 30.024C94.6617 30.7703 95.5848 31.3065 96.6757 31.3945L108.334 21.1615L96.6855 11C95.5848 11.088 94.6617 11.6225 94.1685 12.3721L94.1677 30.024Z" fill="white"/>
<path d="M70.2128 39.3987C72.5394 39.3987 74.4256 37.4941 74.4256 35.1446C74.4256 32.7952 72.5394 30.8906 70.2128 30.8906C67.8861 30.8906 66 32.7952 66 35.1446C66 37.4941 67.8861 39.3987 70.2128 39.3987Z" fill="white"/>
<path d="M107.847 31.856C105.518 32.4005 103.137 32.6039 100.659 32.6595C100.491 37.16 99.145 40.3889 96.5819 42.3039C95.9748 42.7754 95.2561 43.1414 94.4258 43.402C93.6038 43.661 92.7991 43.8262 92.028 43.8909C91.2521 43.9557 90.1876 43.9905 88.8206 43.9905H82.6128V43.9607H74.4157V44.6471C74.4163 45.8053 74.5316 46.7461 74.7618 47.4693C74.9903 48.1931 75.4816 48.7553 76.2356 49.156C76.9886 49.5536 78.1147 49.7536 79.6026 49.7536H90.2887C92.1415 49.7536 93.8167 49.6465 95.2914 49.4357C96.7157 49.2373 98.1114 48.8681 99.4491 48.3359C100.729 47.821 101.927 47.1212 103.008 46.2583C104.343 45.1845 105.491 43.8925 106.404 42.4359C107.285 41.0137 107.939 39.4139 108.364 37.6365C108.736 36.0635 108.923 34.3171 108.964 32.4478C108.565 32.3054 108.188 32.1061 107.845 31.856" fill="white"/>
<path d="M80.8348 37.9751C80.3383 37.2298 79.416 36.6927 78.3252 36.6056L66.6675 46.8376L78.3161 57C79.4168 56.912 80.3391 56.3775 80.8348 55.6279V37.9751ZM104.79 28.6038C105.623 28.6043 106.437 28.8542 107.13 29.322C107.822 29.7898 108.362 30.4544 108.68 31.2318C108.999 32.0092 109.082 32.8645 108.919 33.6896C108.756 34.5147 108.354 35.2724 107.765 35.8671C107.176 36.4617 106.425 36.8666 105.608 37.0304C104.79 37.1943 103.944 37.1098 103.174 36.7876C102.404 36.4654 101.747 35.92 101.284 35.2204C100.821 34.5208 100.574 33.6983 100.574 32.857C100.575 32.2983 100.684 31.745 100.896 31.2289C101.108 30.7127 101.418 30.2438 101.81 29.8489C102.201 29.4539 102.666 29.1407 103.177 28.9271C103.688 28.7134 104.236 28.6036 104.79 28.6038Z" fill="white"/>
</svg>
