<svg width="176" height="81" viewBox="0 0 176 81" fill="none" xmlns="http://www.w3.org/2000/svg">
<rect width="176" height="81" rx="27" fill="#1B75BB"/>
<path d="M67.6605 74V65.2727H73.7457V66.9858H69.7699V68.7756H73.4347V70.4929H69.7699V72.2869H73.7457V74H67.6605ZM77.1506 70.267V74H75.0668V67.4545H77.0483V68.6562H77.1207C77.2656 68.2557 77.5128 67.9418 77.8622 67.7145C78.2116 67.4844 78.6278 67.3693 79.1108 67.3693C79.571 67.3693 79.9702 67.473 80.3082 67.6804C80.6491 67.8849 80.9134 68.1719 81.1009 68.5412C81.2912 68.9077 81.3849 69.3366 81.3821 69.8281V74H79.2983V70.2372C79.3011 69.8736 79.2088 69.5895 79.0213 69.3849C78.8366 69.1804 78.5795 69.0781 78.25 69.0781C78.0312 69.0781 77.8381 69.1264 77.6705 69.223C77.5057 69.3168 77.3778 69.4517 77.2869 69.6278C77.1989 69.804 77.1534 70.017 77.1506 70.267ZM85.7234 76.5909C85.1012 76.5909 84.5685 76.5043 84.1254 76.331C83.6822 76.1577 83.3342 75.9205 83.0813 75.6193C82.8285 75.3182 82.6765 74.9773 82.6254 74.5966L84.5984 74.4858C84.6353 74.6193 84.7035 74.7358 84.8029 74.8352C84.9052 74.9347 85.0373 75.0114 85.1992 75.0653C85.364 75.1193 85.5572 75.1463 85.7788 75.1463C86.1282 75.1463 86.4165 75.0611 86.6438 74.8906C86.8739 74.723 86.989 74.429 86.989 74.0085V72.858H86.9165C86.8342 73.0597 86.7092 73.2401 86.5415 73.3991C86.3739 73.5582 86.1651 73.6832 85.9151 73.7741C85.668 73.8651 85.3839 73.9105 85.0629 73.9105C84.5856 73.9105 84.1481 73.7997 83.7504 73.5781C83.3555 73.3537 83.0387 73.0071 82.8001 72.5384C82.5643 72.0668 82.4464 71.4602 82.4464 70.7188C82.4464 69.9545 82.5685 69.3253 82.8129 68.831C83.0572 68.3338 83.3768 67.9659 83.7717 67.7273C84.1694 67.4886 84.5969 67.3693 85.0543 67.3693C85.3981 67.3693 85.6921 67.429 85.9364 67.5483C86.1836 67.6648 86.3867 67.8153 86.5458 68C86.7049 68.1847 86.8256 68.3764 86.908 68.5753H86.9677V67.4545H89.043V74.0256C89.043 74.5795 88.9038 75.0469 88.6254 75.4276C88.3469 75.8082 87.9577 76.0966 87.4577 76.2926C86.9577 76.4915 86.3796 76.5909 85.7234 76.5909ZM85.7873 72.3935C86.0401 72.3935 86.256 72.3267 86.435 72.1932C86.614 72.0597 86.7518 71.8679 86.8484 71.6179C86.945 71.3679 86.9933 71.0682 86.9933 70.7188C86.9933 70.3636 86.945 70.0582 86.8484 69.8026C86.7546 69.544 86.6168 69.3452 86.435 69.206C86.256 69.0668 86.0401 68.9972 85.7873 68.9972C85.5288 68.9972 85.31 69.0682 85.131 69.2102C84.9521 69.3523 84.8157 69.5526 84.7219 69.8111C84.631 70.0668 84.5856 70.3693 84.5856 70.7188C84.5856 71.0682 84.6325 71.3679 84.7262 71.6179C84.82 71.8679 84.9549 72.0597 85.131 72.1932C85.31 72.3267 85.5288 72.3935 85.7873 72.3935ZM92.4553 65.2727V74H90.3714V65.2727H92.4553ZM93.7816 74V67.4545H95.8654V74H93.7816ZM94.8256 66.6918C94.533 66.6918 94.2816 66.5952 94.0714 66.402C93.8612 66.206 93.756 65.9702 93.756 65.6946C93.756 65.4219 93.8612 65.1889 94.0714 64.9957C94.2816 64.7997 94.533 64.7017 94.8256 64.7017C95.1211 64.7017 95.3725 64.7997 95.5799 64.9957C95.7901 65.1889 95.8952 65.4219 95.8952 65.6946C95.8952 65.9702 95.7901 66.206 95.5799 66.402C95.3725 66.5952 95.1211 66.6918 94.8256 66.6918ZM102.906 69.4531L100.993 69.5043C100.973 69.3679 100.919 69.2472 100.831 69.142C100.743 69.0341 100.628 68.9503 100.486 68.8906C100.347 68.8281 100.185 68.7969 100 68.7969C99.7585 68.7969 99.5526 68.8452 99.3821 68.9418C99.2145 69.0384 99.1321 69.169 99.1349 69.3338C99.1321 69.4616 99.1832 69.5724 99.2884 69.6662C99.3963 69.7599 99.5881 69.8352 99.8636 69.892L101.125 70.1307C101.778 70.2557 102.264 70.4631 102.582 70.7528C102.903 71.0426 103.065 71.4261 103.068 71.9034C103.065 72.3523 102.932 72.7429 102.668 73.0753C102.406 73.4077 102.048 73.6662 101.594 73.8509C101.139 74.0327 100.619 74.1236 100.034 74.1236C99.0994 74.1236 98.3622 73.9318 97.8224 73.5483C97.2855 73.1619 96.9787 72.6449 96.902 71.9972L98.9602 71.946C99.0057 72.1847 99.1236 72.3665 99.3139 72.4915C99.5043 72.6165 99.7472 72.679 100.043 72.679C100.31 72.679 100.527 72.6293 100.695 72.5298C100.862 72.4304 100.947 72.2983 100.95 72.1335C100.947 71.9858 100.882 71.8679 100.754 71.7798C100.626 71.6889 100.426 71.6179 100.153 71.5668L99.0114 71.3494C98.3551 71.2301 97.8665 71.0099 97.5455 70.6889C97.2244 70.3651 97.0653 69.9531 97.0682 69.4531C97.0653 69.0156 97.1818 68.642 97.4176 68.3324C97.6534 68.0199 97.9886 67.7812 98.4233 67.6165C98.858 67.4517 99.3707 67.3693 99.9616 67.3693C100.848 67.3693 101.547 67.5554 102.058 67.9276C102.57 68.2969 102.852 68.8054 102.906 69.4531ZM106.178 70.267V74H104.094V65.2727H106.11V68.6562H106.182C106.33 68.2528 106.571 67.9375 106.907 67.7102C107.245 67.483 107.658 67.3693 108.147 67.3693C108.607 67.3693 109.007 67.4716 109.348 67.6761C109.689 67.8778 109.953 68.1634 110.141 68.5327C110.331 68.902 110.425 69.3338 110.422 69.8281V74H108.338V70.2372C108.341 69.8736 108.25 69.5895 108.066 69.3849C107.881 69.1804 107.621 69.0781 107.286 69.0781C107.067 69.0781 106.874 69.1264 106.706 69.223C106.542 69.3168 106.412 69.4517 106.319 69.6278C106.228 69.804 106.181 70.017 106.178 70.267Z" fill="white"/>
<path d="M112.936 51.5508C112.936 52.2581 112.798 52.9585 112.527 53.6121C112.257 54.2656 111.86 54.8595 111.36 55.3598C110.86 55.8601 110.267 56.2569 109.613 56.5276C108.96 56.7983 108.26 56.9376 107.552 56.9375H68.3813C67.6742 56.9373 66.9741 56.7978 66.3209 56.5269C65.6678 56.2561 65.0744 55.8592 64.5747 55.359C64.0749 54.8587 63.6787 54.265 63.4085 53.6115C63.1383 52.9581 62.9995 52.2579 63 51.5508V12.3836C62.9998 10.9561 63.5666 9.58702 64.5758 8.57742C65.5849 7.56782 66.9538 7.00041 68.3813 7L107.552 7C108.259 6.9999 108.959 7.13908 109.613 7.40959C110.266 7.68011 110.859 8.07666 111.359 8.57659C111.859 9.07652 112.256 9.67005 112.526 10.3233C112.797 10.9765 112.936 11.6766 112.936 12.3836V51.5508Z" fill="#1B75BB"/>
<path d="M75.027 28.012L74.925 36.019H76.965C78.359 35.985 79.6 35.968 80.688 35.968C81.776 35.968 82.983 35.985 84.309 36.019H84.564C84.972 36.019 85.363 36.036 85.737 36.07C86.145 36.07 86.536 36.07 86.91 36.07C87.318 36.104 87.709 36.172 88.083 36.274C88.457 36.342 88.831 36.427 89.205 36.529C89.783 36.733 90.259 37.039 90.633 37.447C90.973 37.889 91.143 38.382 91.143 38.926C91.143 39.096 91.143 39.3 91.143 39.538C91.143 39.742 91.109 39.929 91.041 40.099C90.973 40.473 90.752 40.813 90.378 41.119C90.208 41.357 89.885 41.527 89.409 41.629C88.967 41.765 88.525 41.85 88.083 41.884C87.607 41.986 87.131 42.037 86.655 42.037H84.258L74.823 42.088L74.721 52.084L84.87 52.186H87.267C87.539 52.186 87.794 52.186 88.032 52.186C88.27 52.186 88.491 52.203 88.695 52.237C88.967 52.305 89.205 52.356 89.409 52.39C89.647 52.39 89.868 52.424 90.072 52.492C90.48 52.628 90.82 52.815 91.092 53.053C91.432 53.393 91.653 53.75 91.755 54.124C91.789 54.294 91.806 54.481 91.806 54.685C91.84 54.855 91.84 55.042 91.806 55.246C91.806 55.79 91.636 56.283 91.296 56.725C90.888 57.201 90.412 57.507 89.868 57.643C89.154 57.949 88.372 58.102 87.522 58.102C87.148 58.136 86.757 58.153 86.349 58.153C85.941 58.153 85.55 58.17 85.176 58.204H84.87C82.218 58.272 79.464 58.272 76.608 58.204C75.928 58.204 75.384 58.187 74.976 58.153C74.568 58.153 74.194 58.153 73.854 58.153C73.548 58.153 73.225 58.153 72.885 58.153C72.545 58.153 72.103 58.153 71.559 58.153C70.777 58.221 70.131 58.085 69.621 57.745C69.247 57.507 68.958 57.184 68.754 56.776C68.652 56.674 68.601 56.572 68.601 56.47C68.567 56.402 68.533 56.351 68.499 56.317C68.465 56.283 68.431 56.232 68.397 56.164C68.329 55.994 68.278 55.824 68.244 55.654C68.21 55.45 68.193 55.263 68.193 55.093C68.159 54.923 68.125 54.753 68.091 54.583C68.091 54.413 68.074 54.243 68.04 54.073V53.257C68.04 53.121 68.04 52.985 68.04 52.849C68.074 52.713 68.091 52.577 68.091 52.441V48.463L68.193 41.119V34.336C68.193 33.112 68.193 32.024 68.193 31.072C68.227 30.12 68.261 29.083 68.295 27.961V27.706C68.329 27.332 68.346 26.992 68.346 26.686C68.38 26.346 68.397 26.006 68.397 25.666C68.431 24.986 68.618 24.323 68.958 23.677C69.094 23.405 69.23 23.167 69.366 22.963C69.536 22.759 69.757 22.589 70.029 22.453C70.539 22.147 71.066 21.994 71.61 21.994C71.882 21.994 72.086 22.011 72.222 22.045V21.994C72.834 21.994 73.327 21.994 73.701 21.994C74.075 21.994 74.432 21.994 74.772 21.994C75.146 21.994 75.537 21.994 75.945 21.994C76.353 21.96 76.914 21.943 77.628 21.943C78.988 21.909 80.28 21.892 81.504 21.892C82.728 21.892 83.986 21.909 85.278 21.943H85.482C85.856 21.977 86.247 21.994 86.655 21.994C87.063 21.994 87.454 22.011 87.828 22.045C88.202 22.045 88.576 22.096 88.95 22.198C89.324 22.266 89.698 22.368 90.072 22.504C90.65 22.674 91.126 22.963 91.5 23.371C91.806 23.847 91.959 24.323 91.959 24.799C91.959 25.003 91.959 25.207 91.959 25.411C91.959 25.581 91.925 25.751 91.857 25.921C91.823 26.261 91.619 26.618 91.245 26.992C91.109 27.06 90.956 27.145 90.786 27.247C90.65 27.349 90.48 27.434 90.276 27.502C90.072 27.57 89.851 27.621 89.613 27.655C89.409 27.655 89.205 27.672 89.001 27.706C88.729 27.774 88.474 27.808 88.236 27.808C88.032 27.808 87.794 27.808 87.522 27.808H85.227L75.027 27.859V28.012ZM123.774 54.124C123.74 54.702 123.655 55.314 123.519 55.96C123.417 56.606 123.094 57.133 122.55 57.541C122.142 57.881 121.683 58.085 121.173 58.153C120.663 58.221 120.153 58.187 119.643 58.051C119.167 57.949 118.708 57.779 118.266 57.541C117.824 57.269 117.467 56.946 117.195 56.572C116.039 55.144 114.968 53.682 113.982 52.186C113.03 50.656 112.061 49.126 111.075 47.596L106.791 41.119C106.213 40.201 105.601 39.181 104.955 38.059C104.309 36.903 103.646 35.832 102.966 34.846L102.813 54.328V54.787C102.813 55.331 102.711 55.875 102.507 56.419C102.337 56.929 102.031 57.371 101.589 57.745C101.249 58.017 100.807 58.204 100.263 58.306C99.4132 58.476 98.6992 58.425 98.1212 58.153C97.5772 57.881 97.1352 57.507 96.7952 57.031C96.4892 56.555 96.2682 56.011 96.1322 55.399C96.0302 54.753 96.0132 54.124 96.0812 53.512V52.645L96.1832 48.667L96.2342 41.272C96.2682 40.184 96.2852 39.079 96.2852 37.957C96.2852 36.801 96.2852 35.628 96.2852 34.438C96.2512 32.976 96.2512 31.429 96.2852 29.797C96.3532 28.165 96.4212 26.635 96.4892 25.207C96.5572 24.425 96.7442 23.762 97.0502 23.218C97.1862 22.742 97.5432 22.334 98.1212 21.994C98.4952 21.756 98.9712 21.603 99.5492 21.535C100.161 21.467 100.688 21.484 101.13 21.586C101.3 21.654 101.47 21.739 101.64 21.841C101.81 21.909 101.98 21.994 102.15 22.096C102.32 22.232 102.473 22.368 102.609 22.504C102.779 22.64 102.932 22.793 103.068 22.963C103.238 23.133 103.391 23.32 103.527 23.524C103.663 23.694 103.799 23.864 103.935 24.034C104.037 24.238 104.139 24.425 104.241 24.595C104.343 24.765 104.462 24.935 104.598 25.105L105.159 25.921L116.94 44.485V41.119C116.94 40.031 116.923 38.926 116.889 37.804C116.889 36.648 116.872 35.458 116.838 34.234C116.838 32.806 116.838 31.276 116.838 29.644C116.872 28.012 116.923 26.482 116.991 25.054C116.991 24.476 117.161 23.813 117.501 23.065C117.671 22.623 117.96 22.266 118.368 21.994C118.776 21.722 119.235 21.535 119.745 21.433C120.255 21.331 120.765 21.331 121.275 21.433C121.785 21.535 122.227 21.739 122.601 22.045C122.703 22.147 122.805 22.266 122.907 22.402C123.009 22.538 123.094 22.691 123.162 22.861C123.332 23.303 123.434 23.694 123.468 24.034C123.57 24.51 123.621 24.935 123.621 25.309C123.621 29.559 123.621 33.894 123.621 38.314C123.655 42.734 123.689 47.069 123.723 51.319C123.723 51.795 123.74 52.271 123.774 52.747C123.808 53.189 123.808 53.648 123.774 54.124Z" fill="#FFFEFE"/>
</svg>
